<?xml version="1.0" encoding="UTF-8"?>
<svg width="1200pt" height="1200pt" version="1.1" viewBox="0 0 1200 1200" xmlns="http://www.w3.org/2000/svg">
  <g>
    <path
      d="m60 0h1080c33.137 0 60 33.137 60 60v1080c0 33.137-26.863 60-60 60h-1080c-33.137 0-60-33.137-60-60v-1080c0-33.137 26.863-60 60-60z"
      fill="#000" />
    <path
      d="m320.97 484.88h191.18v-132.13c0.023437-21.32 8.5039-41.758 23.578-56.832 15.074-15.078 35.512-23.555 56.832-23.582h286.46c21.316 0.027344 41.758 8.5039 56.832 23.582 15.074 15.074 23.555 35.512 23.578 56.832v179.13c0.039062 15.898-4.6914 31.445-13.578 44.633-28.34 54.555-159.05 135.2-160.47 136.03-2.7852 1.6641-5.9648 2.5586-9.207 2.5977-5.9023 0.042969-11.43-2.8711-14.727-7.7617-3.3008-4.8906-3.9336-11.105-1.6875-16.562 9.4805-25.562 16.828-51.863 21.961-78.641h-93.875v132.25h0.003906c-0.03125 21.309-8.5156 41.73-23.594 56.789-15.074 15.055-35.512 23.508-56.82 23.504h-189.16c5.1367 26.777 12.48 53.082 21.961 78.645 2.2461 5.4531 1.6133 11.672-1.6875 16.559-3.2969 4.8906-8.8242 7.8047-14.723 7.7656-3.2461-0.039062-6.4258-0.9375-9.2109-2.5977-1.418-0.82812-132.13-81.477-160.47-136.03v-0.003906c-8.8867-13.184-13.617-28.73-13.578-44.633v-179.13c0.023438-21.316 8.5039-41.758 23.578-56.832s35.516-23.555 56.832-23.578zm412.34 44.398c22.754 13.137 48.715 19.68 74.98 18.891h0.35547-0.003907c6.3281 0 12.176-3.375 15.34-8.8555 3.1641-5.4805 3.1641-12.23 0-17.711-3.1641-5.4805-9.0117-8.8555-15.34-8.8555h-0.35547 0.003907c-15.633 0.34766-31.18-2.4609-45.699-8.2656 11.887-14.062 21.238-30.086 27.633-47.352 2.2773-5.9062 1.2305-12.578-2.7461-17.504-3.9727-4.9258-10.277-7.3594-16.531-6.3789-6.2539 0.98047-11.508 5.2227-13.785 11.129-5.2539 14.637-13.363 28.082-23.852 39.559-14.465-17.539-23.496-38.922-25.98-61.52h101.31c6.3281 0 12.176-3.3789 15.34-8.8555 3.1641-5.4805 3.1641-12.234 0-17.715-3.1641-5.4805-9.0117-8.8555-15.34-8.8555h-55.617l0.003906-31.055c0-6.3281-3.375-12.176-8.8555-15.34-5.4805-3.1641-12.234-3.1641-17.715 0-5.4805 3.1641-8.8555 9.0117-8.8555 15.34v31.055h-55.496c-6.3281 0-12.176 3.375-15.34 8.8555-3.1641 5.4805-3.1641 12.234 0 17.715 3.1641 5.4766 9.0117 8.8555 15.34 8.8555h9.5664-0.003906c2.6484 30 14.016 58.57 32.711 82.184-11.523 4.8984-23.855 7.6211-36.371 8.0273 8.5312 9.6406 14.535 21.242 17.477 33.773 16.941-2.3828 33.219-8.2109 47.824-17.121zm-457.33 215.14c-0.09375 9.1367 2.7188 18.07 8.0312 25.504 0.70312 0.99609 1.2969 2.0664 1.7695 3.1914 13.934 26.449 66.242 66.715 105.92 94.348-7.9102-30.465-11.926-56.09-12.164-57.742l0.003907-0.003906c-0.79297-5.082 0.67188-10.258 4.0156-14.168 3.3906-3.9102 8.2852-6.1836 13.461-6.2578h210.42c11.914 0.007813 23.344-4.7109 31.781-13.125 8.4336-8.4141 13.184-19.832 13.207-31.746v-179.13c-0.015625-11.926-4.7617-23.359-13.195-31.793-8.4336-8.4336-19.867-13.18-31.793-13.195h-286.46c-11.926 0.015625-23.359 4.7617-31.793 13.195-8.4336 8.4336-13.18 19.867-13.195 31.793zm124.22-66.02v-0.058593l47.102-117.74 0.09375-0.1875c0.28906-0.65234 0.62109-1.2812 0.99219-1.8906 0.22266-0.40234 0.40234-0.82812 0.64844-1.1797 0.36719-0.5 0.76172-0.97656 1.1836-1.4297 0.31641-0.41016 0.65625-0.80469 1.0156-1.1797 0.40234-0.36719 0.82422-0.71484 1.2617-1.0391 0.44141-0.42188 0.90625-0.81641 1.3945-1.1836 0.40234-0.27344 0.86328-0.47266 1.2852-0.70703 0.58203-0.34375 1.1797-0.65625 1.7969-0.93359l0.19922-0.10547c0.4375-0.17578 0.875-0.24609 1.3125-0.37891 0.59375-0.20703 1.2031-0.38281 1.8164-0.51953 0.57812-0.097656 1.1641-0.17188 1.75-0.21094 0.55859-0.074219 1.1211-0.11719 1.6875-0.12891 0.61328 0 1.1797 0.082031 1.832 0.14062 0.64844 0.058594 1.0742 0.082032 1.6055 0.1875h-0.003906c0.64844 0.14453 1.2891 0.32813 1.9141 0.54297 0.41406 0.14062 0.83984 0.19922 1.25 0.36719l0.19922 0.10547h0.003906c0.61328 0.27344 1.207 0.58594 1.7812 0.93359 0.4375 0.23438 0.89844 0.4375 1.3008 0.70703 0.40234 0.27344 0.89844 0.71875 1.3477 1.0859 0.44922 0.36719 0.91016 0.68359 1.3125 1.0859 0.40234 0.40234 0.63672 0.78125 0.96875 1.1797l-0.003906 0.003906c0.42188 0.47266 0.81641 0.96875 1.1797 1.4883 0.24609 0.36719 0.42578 0.79297 0.64844 1.1797h0.003907c0.36719 0.62109 0.70312 1.2578 1 1.9141l0.09375 0.1875 47.09 117.74v0.058594l23.734 59.324h0.003906c1.8398 4.3789 1.8477 9.3164 0.011719 13.699-1.832 4.3828-5.3516 7.8477-9.7617 9.6133-4.4102 1.7656-9.3477 1.6836-13.699-0.22656-4.3477-1.9102-7.75-5.4883-9.4375-9.9297l-19.164-47.906h-70.48l-19.164 47.906h-0.003906c-1.6836 4.4414-5.0859 8.0195-9.4375 9.9297-4.3516 1.9102-9.2852 1.9922-13.695 0.22656-4.4141-1.7656-7.9297-5.2305-9.7656-9.6133-1.832-4.3828-1.8281-9.3203 0.015625-13.699zm84.641-10.852-21.078-52.676-21.066 52.676z"
      fill="#fff" />
  </g>
</svg>
