<svg width="683" height="683" viewBox="0 0 683 683" fill="none" xmlns="http://www.w3.org/2000/svg">
<path d="M78.5 232.46H258.003V108.467C258.029 88.4572 265.989 69.2818 280.147 55.1307C294.297 40.9804 313.492 33.0242 333.505 33H602.498C622.511 33.0258 641.706 40.9815 655.856 55.1307C670.015 69.281 677.976 88.4565 678 108.467V276.561C678.034 291.484 673.598 306.073 665.251 318.445C638.644 369.641 515.904 445.325 514.571 446.097C511.957 447.661 508.974 448.503 505.922 448.538C500.386 448.581 495.194 445.84 492.099 441.252C488.996 436.664 488.403 430.83 490.509 425.71C499.415 401.723 506.309 377.039 511.132 351.917H422.983V476.022H422.991C422.965 496.014 414.997 515.183 400.839 529.308C386.68 543.441 367.494 551.37 347.48 551.37H169.868C174.69 576.501 181.585 601.183 190.491 625.172C192.597 630.292 192.004 636.126 188.901 640.714C185.806 645.302 180.614 648.034 175.077 648C172.026 647.957 169.043 647.123 166.429 645.56C165.097 644.786 42.3643 569.103 15.7489 517.907C7.40163 505.535 2.96587 490.946 3.0002 476.023V307.92C3.02599 287.919 10.9864 268.735 25.1371 254.593C39.2956 240.443 58.4823 232.486 78.5044 232.462L78.5 232.46ZM465.671 274.119C487.042 286.457 511.421 292.591 536.076 291.852H536.411C545.592 291.852 553.037 284.412 553.037 275.228C553.037 266.052 545.592 258.612 536.411 258.612H536.076C521.402 258.938 506.804 256.301 493.171 250.854C504.329 237.657 513.106 222.622 519.115 206.418C522.416 197.853 518.152 188.23 509.582 184.923C501.002 181.615 491.374 185.885 488.073 194.45C483.139 208.188 475.522 220.8 465.67 231.575C452.087 215.113 443.612 195.053 441.282 173.84H536.412C545.593 173.84 553.038 166.399 553.038 157.224C553.038 148.039 545.593 140.599 536.412 140.599H484.189V111.456C484.189 102.272 476.744 94.8318 467.555 94.8318C458.374 94.8318 450.929 102.272 450.929 111.456V140.599H398.816C389.635 140.599 382.182 148.039 382.182 157.224C382.182 166.399 389.635 173.84 398.816 173.84H407.799C410.284 201.995 420.961 228.808 438.506 250.965C427.691 255.561 416.112 258.113 404.36 258.5C412.363 267.547 418.002 278.432 420.77 290.194C436.674 287.951 451.96 282.488 465.671 274.119ZM36.2684 476.021C36.1824 484.595 38.8216 492.972 43.8076 499.957C44.4695 500.885 45.0283 501.89 45.4753 502.947C58.5592 527.768 107.681 565.554 144.928 591.483C137.5 562.89 133.726 538.851 133.511 537.296H133.503C132.763 532.527 134.139 527.673 137.277 523.996C140.457 520.327 145.057 518.197 149.913 518.128H347.487C358.679 518.136 369.408 513.703 377.333 505.807C385.25 497.912 389.712 487.198 389.729 476.021V307.918C389.72 296.723 385.259 286.001 377.341 278.08C369.424 270.167 358.687 265.717 347.486 265.7H78.5156C67.3145 265.717 56.5772 270.167 48.6608 278.08C40.7433 286.002 36.2904 296.724 36.2732 307.918L36.2684 476.021ZM152.906 414.067V414.016L197.136 303.529L197.222 303.349C197.497 302.73 197.806 302.137 198.159 301.57C198.374 301.192 198.537 300.797 198.769 300.462C199.113 299.998 199.483 299.551 199.878 299.122C200.17 298.735 200.489 298.366 200.832 298.013C201.211 297.67 201.606 297.343 202.019 297.043C202.431 296.647 202.87 296.278 203.325 295.934C203.704 295.677 204.133 295.488 204.537 295.273L204.529 295.264C205.079 294.946 205.638 294.654 206.214 294.388L206.403 294.285C206.816 294.122 207.22 294.053 207.632 293.932L207.641 293.941C208.2 293.743 208.767 293.58 209.343 293.451C209.884 293.357 210.435 293.288 210.985 293.254C211.509 293.185 212.042 293.142 212.567 293.125C213.143 293.125 213.676 293.202 214.286 293.254C214.896 293.305 215.292 293.331 215.79 293.434H215.799C216.409 293.572 217.002 293.743 217.596 293.95C217.982 294.079 218.386 294.139 218.773 294.293L218.962 294.396L218.954 294.388C219.53 294.646 220.089 294.938 220.63 295.264C221.043 295.488 221.473 295.677 221.851 295.926C222.229 296.183 222.693 296.604 223.115 296.948C223.536 297.292 223.966 297.592 224.344 297.97C224.722 298.349 224.946 298.701 225.255 299.079C225.65 299.526 226.02 299.99 226.364 300.471C226.596 300.814 226.759 301.209 226.974 301.579C227.318 302.163 227.636 302.765 227.911 303.375L227.997 303.555L272.218 414.041V414.093L294.501 469.765H294.509C296.237 473.88 296.237 478.511 294.518 482.627C292.798 486.742 289.498 489.99 285.354 491.648C281.21 493.297 276.577 493.22 272.493 491.433C268.401 489.637 265.212 486.278 263.63 482.111L245.638 437.152H179.454L161.461 482.111C159.871 486.278 156.681 489.637 152.598 491.433C148.515 493.22 143.873 493.297 139.738 491.648C135.594 489.99 132.293 486.742 130.565 482.627C128.846 478.511 128.854 473.88 130.582 469.765L152.906 414.067ZM232.38 403.886L212.591 354.45L192.81 403.886H232.38Z" fill="black"/>
</svg>
